<svg fill="#000000" xmlns="http://www.w3.org/2000/svg"  viewBox="0 0 48 48" width="96px" height="96px"><path d="M 24 4 C 12.972066 4 4 12.972074 4 24 C 4 35.027926 12.972066 44 24 44 C 35.027934 44 44 35.027926 44 24 C 44 12.972074 35.027934 4 24 4 z M 24 7 C 33.406615 7 41 14.593391 41 24 C 41 33.406609 33.406615 41 24 41 C 14.593385 41 7 33.406609 7 24 C 7 14.593391 14.593385 7 24 7 z M 22.568359 11.980469 A 1.50015 1.50015 0 0 0 21.048828 13.119141 L 18.833984 21.535156 L 15.105469 22.552734 A 1.50015 1.50015 0 1 0 15.894531 25.447266 L 17.953125 24.886719 L 16.048828 32.119141 A 1.50015 1.50015 0 0 0 17.5 34 L 30.5 34 A 1.50015 1.50015 0 1 0 30.5 31 L 19.445312 31 L 21.294922 23.974609 L 26.894531 22.447266 A 1.50015 1.50015 0 1 0 26.105469 19.552734 L 22.175781 20.625 L 23.951172 13.880859 A 1.50015 1.50015 0 0 0 22.568359 11.980469 z"/></svg>