<svg xmlns="http://www.w3.org/2000/svg"  viewBox="0 0 48 48" width="48px" height="48px"><path fill="#71c598" d="M4.789,25.932c-0.312,3.999-0.093,8.102,0.563,12.059c0.134,0.808,0.291,1.627,0.669,2.352 c0.528,1.011,1.459,1.765,2.487,2.235s2.156,0.679,3.279,0.797c1.957,0.206,3.93,0.152,5.896,0.098 c2.801-0.077,5.855-0.256,8.657-0.257c3.442-0.001,7.138,0.08,10.579,0.009c0.922-0.019,1.912-0.067,2.644-0.635 c0.54-0.418,0.857-1.061,1.131-1.691c1.237-2.846,2.376-5.53,2.61-8.63c0.497-6.581,0.756-12.855,0.671-19.454 c-0.013-1.013-0.038-2.04-0.329-3.009C42.96,7.53,40.872,5.916,38.637,5.19s-4.63-0.707-6.977-0.68 C26.186,4.571,21.191,4.439,15.717,4.5c-1.657,0.019-3.328,0.039-4.948,0.395C9.471,5.182,8.179,5.71,7.258,6.681 c-1.846,1.946-1.716,4.996-1.602,7.693C5.816,18.141,5.082,22.173,4.789,25.932z"/><polygon fill="#38b47b" points="10.881,43.255 16.019,36.668 23.576,36.878 20.174,43.455"/><path fill="#73a1b2" d="M11.038,43.255l5.128-6.531c0,0-8.504-0.591-10.978,0.214C5.454,39.432,6.229,42.996,11.038,43.255z"/><polygon fill="#febf10" points="19.958,43.394 23.837,36.939 34.109,37.223 30.774,43.3"/><path fill="#ef4823" d="M30.531,43.238l3.459-5.787c0,0,3.077,0.118,4.573-0.234c1.497-0.353,3.624-0.206,3.624-0.206 s-1.33,4.696-3.117,5.869C38.25,43.418,30.531,43.238,30.531,43.238z"/><path fill="#d6e5e5" d="M35.91,10.42c-0.16-0.27-0.33-0.55-0.59-0.73c-0.29-0.19-0.65-0.24-1-0.26 c-0.97-0.06-1.94,0.02-2.92,0.02c-4.32,0.03-6.63-0.03-10.95,0.22c-0.98,0.06-4.83-0.62-5.77-0.29c-1.55,0.54-2.55,2.15-2.88,3.79 c-0.33,1.64-0.11,3.34,0.02,5c0.28,3.5,0.21,7.03-0.22,10.52c-0.07,0.51-0.14,1.03-0.05,1.54c0.22,1.34,1.48,2.29,2.78,2.6 c1.3,0.3,2.65,0.12,3.98,0.03c1.27-0.09,2.53-0.08,3.79,0.01c0.17,0.01,0.35,0.03,0.47,0.15c0.16,0.15,0.15,0.41,0.13,0.64 c-0.16,1.76-0.14,3.54,0.07,5.29c0.91-1.01,1.82-2.02,2.73-3.03c0.4-0.45,0.82-0.91,1.33-1.24c2.03-1.33,4.88-0.23,7.04-1.34 c1.19-0.61,2-1.81,2.46-3.08c0.39-1.07,0.57-2.2,0.75-3.33c0.43-2.78,0.84-5.58,0.79-8.39C37.82,15.72,37.28,12.87,35.91,10.42z M25.9,15.76c0.26-0.33,1.03-0.65,1.73-0.65c1.07,0,2.18,0.49,2.67,1.42c0.49,0.92,0.19,2.21-0.75,2.71 c-0.74,0.4-1.67,0.25-2.46-0.03c-0.3-0.11-0.6-0.24-0.82-0.46c-0.22-0.25-0.32-0.58-0.42-0.89C25.64,17.16,25.46,16.34,25.9,15.76 z M18.86,16.32c0.17-0.14,0.34-0.26,0.55-0.32c0.33-0.09,0.69,0.01,1,0.16c1.02,0.49,1.76,1.5,1.92,2.62 c-0.75-0.04-1.44-0.41-2.18-0.5c-0.97-0.12-1.98,0.25-2.59,1.01C17.53,18.19,18.02,17.04,18.86,16.32z M30.42,23.28 c-0.4,1.33-1.03,2.68-1.71,3.89c-0.8,1.41-2.48,2.32-5.11,2.29c-0.76-0.01-1.47-0.33-2.2-0.53c-0.47-0.13-0.96-0.27-1.35-0.56 c-0.67-0.47-1.01-1.26-1.31-2c-0.44-1.09-0.74-2.65-1.18-3.73c4.03,0.41,7.95-0.42,12-0.64c0.25-0.02,0.52-0.03,0.72,0.11 C30.63,22.36,30.55,22.88,30.42,23.28z"/><path fill="#010101" d="M14.995,43.955c-1.085,0-2.177-0.036-3.261-0.15c-1.437-0.151-2.496-0.41-3.434-0.838 c-1.219-0.556-2.186-1.427-2.723-2.452c-0.412-0.787-0.582-1.665-0.719-2.496c-0.685-4.125-0.876-8.212-0.568-12.151 c0.095-1.213,0.235-2.454,0.377-3.706c0.292-2.583,0.595-5.255,0.489-7.765c-0.119-2.789-0.252-5.945,1.739-8.04 c0.875-0.919,2.142-1.567,3.766-1.924c1.676-0.368,3.391-0.387,5.05-0.406c2.745-0.031,5.411-0.013,7.99,0.004 c2.568,0.017,5.222,0.036,7.953,0.005c2.359-0.026,4.801-0.054,7.137,0.703c2.667,0.865,4.661,2.709,5.333,4.935 c0.324,1.072,0.339,2.218,0.351,3.14c0.08,6.163-0.134,12.344-0.672,19.452c-0.246,3.255-1.468,6.06-2.649,8.771 c-0.283,0.649-0.639,1.383-1.284,1.882c-0.832,0.643-1.865,0.716-2.94,0.738c-2.26,0.047-4.647,0.028-6.957,0.01 c-1.228-0.01-2.442-0.034-3.632-0.019c-1.804,0-3.735,0.076-5.603,0.149c-1.03,0.04-2.051,0.08-3.041,0.107 C16.807,43.93,15.903,43.955,14.995,43.955z M18.926,5.01c-1.056,0-2.124,0.004-3.203,0.017c-1.608,0.018-3.271,0.037-4.846,0.382 C9.451,5.723,8.355,6.273,7.621,7.046c-1.699,1.787-1.575,4.718-1.465,7.303c0.11,2.592-0.197,5.303-0.494,7.925 c-0.141,1.24-0.28,2.47-0.374,3.671l0,0c-0.302,3.857-0.115,7.864,0.557,11.909c0.13,0.783,0.275,1.54,0.619,2.196 c0.435,0.83,1.234,1.542,2.252,2.006c0.835,0.381,1.798,0.614,3.123,0.753c1.927,0.203,3.912,0.149,5.831,0.095 c0.986-0.027,2.003-0.067,3.029-0.107c1.888-0.074,3.822-0.151,5.673-0.149c1.18,0,2.39,0.009,3.609,0.019 c2.304,0.018,4.683,0.037,6.929-0.01c0.901-0.019,1.759-0.073,2.349-0.529c0.458-0.354,0.745-0.956,0.979-1.491 c1.148-2.636,2.336-5.361,2.569-8.447c0.536-7.079,0.749-13.231,0.669-19.364c-0.014-1.091-0.046-1.995-0.308-2.863 c-0.577-1.912-2.328-3.509-4.684-4.273c-2.179-0.706-4.538-0.679-6.817-0.654c-2.739,0.031-5.398,0.012-7.97-0.005 C22.137,5.021,20.545,5.01,18.926,5.01z M4.789,25.907h0.01H4.789z"/><path fill="#010101" d="M36.127,37.84c-0.648,0-1.276-0.017-1.798-0.035c-1.697-0.057-3.297-0.117-4.897-0.176 c-1.599-0.06-3.197-0.12-4.894-0.177c-0.276-0.009-0.492-0.24-0.483-0.516c0.009-0.276,0.273-0.498,0.516-0.483 c1.698,0.057,3.298,0.117,4.897,0.176c1.599,0.06,3.197,0.12,4.894,0.177c1.126,0.037,2.763,0.073,3.958-0.064 c0.242-0.028,0.515-0.064,0.806-0.103c1.038-0.138,2.33-0.311,3.247-0.223c0.275,0.026,0.477,0.27,0.45,0.545 c-0.026,0.274-0.269,0.484-0.545,0.45c-0.804-0.075-2.032,0.088-3.02,0.219c-0.297,0.04-0.576,0.077-0.823,0.105 C37.742,37.815,36.919,37.84,36.127,37.84z"/><path fill="#010101" d="M22.332,37.378c-0.006,0-0.012,0-0.018,0l-5.581-0.188c-3.6-0.121-7.32-0.248-10.948,0.16 c-0.273,0.028-0.522-0.167-0.553-0.441s0.167-0.522,0.441-0.553c3.701-0.415,7.458-0.288,11.093-0.165l5.581,0.188 c0.276,0.009,0.492,0.24,0.482,0.517C22.822,37.166,22.6,37.378,22.332,37.378z"/><path fill="#010101" d="M11.304,43.474c-0.104,0-0.208-0.032-0.298-0.099c-0.222-0.165-0.268-0.478-0.103-0.699l4.491-6.035 c0.166-0.221,0.478-0.268,0.699-0.103c0.222,0.165,0.268,0.478,0.103,0.699l-4.491,6.035 C11.607,43.404,11.457,43.474,11.304,43.474z"/><path fill="#010101" d="M30.773,43.62c-0.07,0-0.142-0.015-0.21-0.047c-0.25-0.116-0.359-0.414-0.242-0.664 c0.801-1.72,1.734-3.395,2.772-4.979c0.186-0.282,0.343-0.522,0.418-0.769c0.08-0.264,0.358-0.412,0.624-0.333 c0.264,0.08,0.414,0.359,0.333,0.624c-0.116,0.384-0.332,0.711-0.521,1c-1.03,1.57-1.939,3.203-2.72,4.879 C31.143,43.513,30.962,43.62,30.773,43.62z"/><path fill="#010101" d="M22.771,39.455c-0.05,0-0.102-0.008-0.151-0.023c-0.187-0.06-0.322-0.223-0.345-0.418 c-0.211-1.791-0.237-3.608-0.077-5.402c0.013-0.144,0.01-0.214,0.004-0.248c-0.006,0.017-0.059,0.011-0.132,0.005 c-1.235-0.089-2.486-0.094-3.722-0.01l-0.64,0.048c-1.144,0.09-2.326,0.184-3.493-0.094c-1.379-0.327-2.892-1.38-3.16-2.996 c-0.093-0.563-0.026-1.106,0.04-1.631c0.432-3.503,0.506-7.007,0.229-10.47l-0.052-0.625c-0.127-1.48-0.259-3.01,0.042-4.515 c0.318-1.59,1.328-3.52,3.207-4.169c0.634-0.218,2.025-0.093,3.922,0.11c0.846,0.09,1.649,0.179,1.981,0.157c0,0,0,0,0,0 c3.416-0.196,5.532-0.202,8.461-0.21l2.516-0.011c0.319-0.002,0.638-0.011,0.957-0.021c0.65-0.018,1.323-0.038,1.994,0.003 c0.419,0.025,0.861,0.083,1.246,0.342c0.356,0.24,0.572,0.591,0.745,0.901c1.286,2.292,1.969,5.101,2.029,8.348 c0.051,2.76-0.334,5.473-0.803,8.48c-0.167,1.072-0.357,2.288-0.77,3.422c-0.569,1.568-1.528,2.761-2.698,3.359 c-1.13,0.577-2.389,0.606-3.607,0.635c-1.258,0.029-2.446,0.057-3.394,0.673c-0.457,0.296-0.851,0.735-1.232,1.159l-2.725,3.033 C23.046,39.396,22.911,39.455,22.771,39.455z M20.133,32.298c0.671,0,1.342,0.024,2.008,0.073c0.179,0.013,0.513,0.037,0.771,0.284 c0.345,0.333,0.302,0.814,0.282,1.045c-0.121,1.352-0.132,2.717-0.033,4.073l1.963-2.186c0.425-0.473,0.864-0.961,1.431-1.33 c1.187-0.77,2.574-0.803,3.916-0.834c1.157-0.027,2.249-0.053,3.175-0.526c0.944-0.482,1.73-1.48,2.214-2.811 c0.379-1.043,0.553-2.157,0.721-3.234c0.462-2.96,0.841-5.628,0.792-8.308c-0.057-3.081-0.697-5.731-1.901-7.878 c-0.123-0.219-0.257-0.443-0.431-0.56c-0.176-0.118-0.426-0.155-0.748-0.174c-0.628-0.037-1.277-0.02-1.905-0.001 c-0.327,0.009-0.653,0.019-0.979,0.021l-2.52,0.011c-2.914,0.008-5.019,0.014-8.408,0.208c-0.419,0.026-1.219-0.061-2.145-0.161 c-1.202-0.128-3.017-0.323-3.49-0.159c-1.48,0.511-2.289,2.102-2.553,3.42c-0.273,1.365-0.147,2.823-0.026,4.232l0.053,0.631 c0.283,3.531,0.207,7.103-0.227,10.617c-0.066,0.532-0.122,0.981-0.052,1.401c0.193,1.162,1.347,1.936,2.405,2.187 c1.013,0.24,2.066,0.157,3.184,0.07l0.651-0.049C18.896,32.319,19.515,32.298,20.133,32.298z"/><path fill="#010101" d="M28.498,19.986c-0.48,0-1.008-0.102-1.581-0.305c-0.337-0.12-0.72-0.284-1.009-0.593 c-0.313-0.334-0.437-0.751-0.536-1.086c-0.178-0.597-0.508-1.708,0.134-2.545c0.372-0.482,1.283-0.845,2.122-0.845 c0.001,0,0.003,0,0.004,0c1.351,0.002,2.572,0.663,3.109,1.683c0.63,1.196,0.183,2.78-0.958,3.389 C29.406,19.885,28.976,19.986,28.498,19.986z M27.629,15.611c-0.589,0-1.19,0.273-1.33,0.455c-0.291,0.378-0.157,1.017,0.032,1.65 c0.077,0.259,0.157,0.526,0.309,0.689c0.142,0.152,0.378,0.25,0.612,0.333c0.598,0.213,1.439,0.396,2.062,0.063 c0.662-0.353,0.921-1.326,0.544-2.041c-0.361-0.686-1.256-1.147-2.226-1.149l0,0C27.631,15.611,27.63,15.611,27.629,15.611z"/><path fill="#010101" d="M23.733,29.958c-0.047,0-0.094,0-0.141-0.001c-0.624-0.008-1.197-0.191-1.751-0.368 c-0.191-0.061-0.381-0.122-0.572-0.174c-0.512-0.14-1.05-0.305-1.51-0.631c-0.813-0.576-1.184-1.493-1.482-2.23 c-0.229-0.567-0.423-1.253-0.609-1.917c-0.18-0.638-0.365-1.297-0.574-1.813c-0.066-0.162-0.042-0.347,0.063-0.487 c0.105-0.141,0.278-0.213,0.45-0.198c2.656,0.27,5.224-0.001,7.944-0.289c1.298-0.137,2.641-0.279,3.983-0.354 c0.252-0.014,0.677-0.037,1.029,0.209c0.326,0.229,0.65,0.714,0.337,1.726c-0.383,1.24-0.991,2.619-1.759,3.987 C28.223,29.059,26.305,29.958,23.733,29.958z M18.287,23.199c0.121,0.377,0.233,0.776,0.343,1.167 c0.18,0.638,0.365,1.297,0.574,1.813c0.317,0.783,0.602,1.413,1.133,1.789c0.329,0.232,0.754,0.361,1.197,0.483 c0.204,0.056,0.408,0.121,0.612,0.186c0.506,0.162,0.985,0.314,1.459,0.32c2.287,0.013,3.905-0.672,4.665-2.027 c0.733-1.308,1.313-2.619,1.676-3.793c0.134-0.434,0.077-0.589,0.043-0.613c-0.069-0.048-0.301-0.035-0.399-0.03 c-1.318,0.074-2.648,0.215-3.934,0.351C23.256,23.099,20.783,23.361,18.287,23.199z"/><path fill="#010101" d="M20.174,43.8c-0.082,0-0.165-0.02-0.242-0.063c-0.241-0.134-0.329-0.438-0.194-0.68l2.532-4.563 c0.134-0.242,0.438-0.33,0.68-0.194c0.241,0.134,0.329,0.438,0.194,0.68l-2.532,4.563C20.52,43.707,20.35,43.8,20.174,43.8z"/><path fill="#010101" d="M17.56,19.79c-0.053,0-0.107-0.008-0.16-0.026c-0.199-0.067-0.334-0.251-0.34-0.46 c-0.034-1.266,0.531-2.554,1.475-3.363c0.196-0.162,0.431-0.333,0.738-0.421c0.414-0.11,0.865-0.047,1.356,0.191 c1.17,0.562,2.013,1.711,2.197,2.999c0.021,0.148-0.025,0.298-0.126,0.408c-0.101,0.111-0.238,0.172-0.396,0.162 c-0.76-0.041-1.529-0.108-2.143-0.175l0,0c-1.151-0.125-1.833,0.028-2.21,0.498C17.854,19.724,17.709,19.79,17.56,19.79z M19.676,16.466c-0.049,0-0.093,0.005-0.134,0.017c-0.117,0.033-0.23,0.114-0.363,0.224c-0.453,0.388-0.798,0.947-0.979,1.551 c0.688-0.245,1.462-0.213,2.069-0.146l0,0c0.414,0.045,0.901,0.09,1.408,0.127c-0.266-0.703-0.8-1.299-1.483-1.627 C19.996,16.515,19.819,16.466,19.676,16.466z"/></svg>