<svg fill="#000000" xmlns="http://www.w3.org/2000/svg"  viewBox="0 0 32 32" width="32px" height="32px"><path d="M 13.5 5 C 12.691538 5 12.104169 5.5253396 11.701172 6.125 C 11.452169 6.0519372 11.196809 6 10.929688 6 C 10.077663 6 9.3039374 6.4061219 8.703125 6.9882812 C 8.6845086 7.0063197 8.668767 7.028485 8.6503906 7.046875 C 8.4912187 7.0292082 8.3341785 7 8.171875 7 C 6.3254541 7 4.7375639 8.1582588 3.6757812 9.8007812 C 2.6139987 11.443304 2 13.616336 2 16 C 2 18.384125 2.613967 20.556789 3.6757812 22.199219 C 4.7375956 23.841649 6.3255708 25 8.171875 25 C 8.3341785 25 8.4912187 24.970792 8.6503906 24.953125 C 8.6687675 24.971513 8.684508 24.993683 8.703125 25.011719 C 9.3039577 25.593798 10.077739 26 10.929688 26 C 11.196809 26 11.452145 25.94794 11.701172 25.875 C 12.104169 26.47466 12.691538 27 13.5 27 C 14.416667 27 15.065581 26.332011 15.462891 25.636719 C 15.675839 25.26406 15.848053 24.838245 16 24.376953 C 16.151947 24.838245 16.324161 25.26406 16.537109 25.636719 C 16.934419 26.332011 17.583333 27 18.5 27 C 19.308462 27 19.895831 26.47466 20.298828 25.875 C 20.547855 25.94794 20.803191 26 21.070312 26 C 21.922261 26 22.696042 25.593798 23.296875 25.011719 C 23.315802 24.993382 23.332883 24.971825 23.351562 24.953125 C 23.510382 24.97071 23.666311 25 23.828125 25 C 25.674429 25 27.262404 23.841649 28.324219 22.199219 C 29.386033 20.556789 30 18.384125 30 16 C 30 13.616336 29.386001 11.443304 28.324219 9.8007812 C 27.262436 8.1582589 25.674546 7 23.828125 7 C 23.665822 7 23.508951 7.0292267 23.349609 7.046875 C 23.331232 7.0284871 23.315492 7.0063172 23.296875 6.9882812 C 22.696042 6.4062021 21.92226 6 21.070312 6 C 20.804039 6 20.549006 6.0522984 20.300781 6.125 C 19.89778 5.5249523 19.308874 5 18.5 5 C 17.583333 5 16.934419 5.6679886 16.537109 6.3632812 C 16.324161 6.7359402 16.151947 7.1617546 16 7.6230469 C 15.848053 7.1617546 15.675839 6.7359402 15.462891 6.3632812 C 15.065581 5.6679886 14.416667 5 13.5 5 z M 13.5 7.0332031 C 13.538778 7.0733169 13.61276 7.1597479 13.724609 7.3554688 C 13.952299 7.753926 14.202864 8.4617196 14.398438 9.3417969 C 14.789583 11.101951 15 13.555556 15 16 C 15 18.444444 14.789583 20.898049 14.398438 22.658203 C 14.202865 23.53828 13.952299 24.246074 13.724609 24.644531 C 13.612769 24.840252 13.538781 24.926683 13.5 24.966797 C 13.461222 24.926683 13.38724 24.840253 13.275391 24.644531 C 13.047701 24.246074 12.797136 23.53828 12.601562 22.658203 C 12.210418 20.898049 12 18.444444 12 16 C 12 13.555556 12.210417 11.101951 12.601562 9.3417969 C 12.797136 8.4617196 13.047701 7.7539261 13.275391 7.3554688 C 13.387231 7.159748 13.461219 7.0733169 13.5 7.0332031 z M 18.5 7.0332031 C 18.538778 7.0733169 18.61276 7.1597479 18.724609 7.3554688 C 18.952299 7.753926 19.202865 8.4617196 19.398438 9.3417969 C 19.789582 11.101951 20 13.555556 20 16 C 20 18.444444 19.789583 20.898049 19.398438 22.658203 C 19.202865 23.53828 18.952299 24.246074 18.724609 24.644531 C 18.612769 24.840252 18.538781 24.926683 18.5 24.966797 C 18.461222 24.926683 18.38724 24.840253 18.275391 24.644531 C 18.047701 24.246074 17.797135 23.53828 17.601562 22.658203 C 17.210417 20.898049 17 18.444444 17 16 C 17 13.555556 17.210417 11.101951 17.601562 9.3417969 C 17.797135 8.4617196 18.047701 7.7539261 18.275391 7.3554688 C 18.387231 7.159748 18.461219 7.0733169 18.5 7.0332031 z M 10.894531 8.0078125 C 10.80959 8.3009476 10.720311 8.5847732 10.648438 8.9082031 C 10.20625 10.898049 10 13.444444 10 16 C 10 18.555556 10.206249 21.101951 10.648438 23.091797 C 10.720311 23.415227 10.80959 23.699052 10.894531 23.992188 C 10.669672 23.983309 10.419231 23.887648 10.095703 23.574219 C 9.7564109 23.245517 9.3845917 22.693683 9.0664062 21.964844 C 8.4300357 20.507166 8 18.367549 8 16 C 8 13.632975 8.4300166 11.494943 9.0664062 10.037109 C 9.3846011 9.3081929 9.7563906 8.7545594 10.095703 8.4257812 C 10.419251 8.112279 10.669734 8.0166851 10.894531 8.0078125 z M 21.105469 8.0078125 C 21.330328 8.0166914 21.580769 8.1123514 21.904297 8.4257812 C 22.243589 8.7544835 22.615408 9.3063175 22.933594 10.035156 C 23.569964 11.492834 24 13.632451 24 16 C 24 18.367549 23.569964 20.507166 22.933594 21.964844 C 22.615408 22.693683 22.243589 23.245517 21.904297 23.574219 C 21.580769 23.887648 21.330328 23.983309 21.105469 23.992188 C 21.19041 23.699052 21.279689 23.415227 21.351562 23.091797 C 21.793751 21.101951 22 18.555556 22 16 C 22 13.444444 21.79375 10.898049 21.351562 8.9082031 C 21.279689 8.5847732 21.19041 8.3009476 21.105469 8.0078125 z M 7.2597656 9.1816406 C 7.251458 9.2003868 7.2426098 9.2174639 7.234375 9.2363281 C 6.4487647 11.035994 6 13.397025 6 16 C 6 18.603451 6.4487457 20.9641 7.234375 22.763672 C 7.2423694 22.781984 7.2517027 22.798205 7.2597656 22.816406 C 6.5730461 22.549127 5.9172368 21.985253 5.3535156 21.113281 C 4.54358 19.860461 4 18.034875 4 16 C 4 13.965664 4.5435482 12.139696 5.3535156 10.886719 C 5.9173627 10.014477 6.5729202 9.44882 7.2597656 9.1816406 z M 24.740234 9.1816406 C 25.42708 9.44882 26.082638 10.014477 26.646484 10.886719 C 27.456452 12.139696 28 13.965664 28 16 C 28 18.034875 27.45642 19.860461 26.646484 21.113281 C 26.082764 21.985253 25.426954 22.549127 24.740234 22.816406 C 24.748297 22.798205 24.757631 22.781984 24.765625 22.763672 C 25.551254 20.9641 26 18.603451 26 16 C 26 13.396549 25.551254 11.0359 24.765625 9.2363281 C 24.75739 9.2174649 24.748542 9.200386 24.740234 9.1816406 z"/></svg>